<!DOCTYPE svg PUBLIC "-//W3C//DTD SVG 1.1//EN" "http://www.w3.org/Graphics/SVG/1.1/DTD/svg11.dtd">
<!-- Uploaded to: SVG Repo, www.svgrepo.com, Transformed by: SVG Repo Mixer Tools -->
<svg fill="#000000" width="211px" height="211px" viewBox="0 0 256 256" id="Flat" xmlns="http://www.w3.org/2000/svg" transform="rotate(0)">
<g id="SVGRepo_bgCarrier" stroke-width="0"/>
<g id="SVGRepo_tracerCarrier" stroke-linecap="round" stroke-linejoin="round" stroke="#CCCCCC" stroke-width="3.072"/>
<g id="SVGRepo_iconCarrier"> <path d="M215.99609,48H180V36A28.03146,28.03146,0,0,0,152,8H104A28.03146,28.03146,0,0,0,76,36V48H39.99609a12,12,0,0,0,0,24h4V208a20.0226,20.0226,0,0,0,20,20h128a20.0226,20.0226,0,0,0,20-20V72h4a12,12,0,0,0,0-24ZM100,36a4.00458,4.00458,0,0,1,4-4h48a4.00458,4.00458,0,0,1,4,4V48H100Zm87.99609,168h-120V72h120ZM116,104v64a12,12,0,0,1-24,0V104a12,12,0,0,1,24,0Zm48,0v64a12,12,0,0,1-24,0V104a12,12,0,0,1,24,0Z"/> </g>
</svg>